# xmcd
#
# Track frame offsets:
#	150
#	16188
#	34483
#	52473
#	67919
#	82738
#	98553
#	112220
#	129717
#	147963
#	161676
#	180286
#	193939
#	208731
#	220556
#	234541
#	248805
#
# Disc length: 3458 seconds
#
# Revision: 0
# Processed by: cddbd v1.4PL0 Copyright (c) Steve Scherf et al.
# Submitted via: audiograbber 1.80
#
DISCID=f20d8011
DTITLE=Mocedades - RCA Club
DYEAR=1900
DGENRE=
TTITLE0=Eres Tu
TTITLE1=Los Amantes
TTITLE2=Quien te Cantara
TTITLE3=Me Siento Seguro
TTITLE4=Dime Señor
TTITLE5=La Otra Epaña
TTITLE6=Amor
TTITLE7=El Vendedor
TTITLE8=Otoño
TTITLE9=Tomame o Dejame
TTITLE10=El Color de tu mirada
TTITLE11=Adios Amor
TTITLE12=Charango
TTITLE13=Que Te Me Vas
TTITLE14=Secretaria
TTITLE15=Que Pasa Mañana
TTITLE16=Para Ti Pequeñas Cosas
EXTD=
EXTT0=
EXTT1=
EXTT2=
EXTT3=
EXTT4=
EXTT5=
EXTT6=
EXTT7=
EXTT8=
EXTT9=
EXTT10=
EXTT11=
EXTT12=
EXTT13=
EXTT14=
EXTT15=
EXTT16=
PLAYORDER=
